<?xml version="1.0" standalone="no"?>
<!DOCTYPE svg PUBLIC "-//W3C//DTD SVG 20010904//EN"
 "http://www.w3.org/TR/2001/REC-SVG-20010904/DTD/svg10.dtd">
<svg version="1.0" xmlns="http://www.w3.org/2000/svg"
 width="300.000000pt" height="175.000000pt" viewBox="0 0 300.000000 175.000000"
 preserveAspectRatio="xMidYMid meet">
<metadata>
Created by potrace 1.10, written by Peter Selinger 2001-2011
</metadata>
<g transform="translate(0.000000,175.000000) scale(0.050000,-0.050000)"
fill="#000000" stroke="none">
<path d="M5860 3460 c0 -22 13 -40 30 -40 17 0 30 18 30 40 0 22 -13 40 -30
40 -17 0 -30 -18 -30 -40z"/>
<path d="M2500 2970 c-608 -138 -1040 -691 -1040 -1332 0 -147 11 -147 105 0
92 145 109 186 73 178 -15 -3 -27 11 -27 34 -1 29 47 66 195 147 246 134 241
157 -6 33 -101 -51 -189 -88 -194 -83 -6 6 61 47 147 91 86 44 150 80 141 81
-8 1 -70 -27 -136 -60 -67 -34 -132 -58 -145 -53 -12 4 69 54 182 111 113 57
205 107 205 112 0 10 -181 -68 -302 -130 -43 -22 -78 -33 -78 -24 1 24 323
191 383 198 31 3 155 56 276 117 122 61 221 101 221 90 0 -11 -90 -65 -200
-120 -110 -55 -200 -105 -200 -110 0 -6 100 40 222 101 122 61 228 106 234
100 21 -21 3 -159 -22 -175 -41 -26 -52 -18 -43 31 8 41 1 46 -51 43 -73 -4
-98 -24 -53 -42 47 -18 42 -101 -6 -113 -22 -6 -43 1 -49 17 -6 15 -24 28 -41
28 -19 0 -25 -11 -17 -33 10 -27 4 -31 -31 -22 -29 7 -43 2 -43 -16 0 -15 -18
-37 -41 -49 -22 -12 -35 -31 -28 -42 7 -11 -11 -38 -40 -60 l-51 -41 43 -36
c68 -54 36 -97 -83 -113 -127 -17 -151 -132 -30 -143 109 -10 150 -25 150 -55
0 -40 -64 -70 -149 -70 -66 0 -71 -4 -71 -60 0 -81 79 -123 131 -71 46 45 88
8 47 -41 -22 -27 -22 -33 -2 -26 37 12 136 265 172 440 31 152 51 180 116 163
64 -17 63 -52 -5 -285 -75 -258 -84 -234 92 -252 157 -15 249 -70 205 -123
-19 -22 -56 -26 -179 -15 -140 13 -163 9 -227 -30 -95 -59 -76 -74 27 -21 124
62 126 48 5 -29 -59 -38 -116 -64 -125 -58 -10 6 -59 -12 -110 -41 -104 -58
-107 -59 -107 -31 0 10 36 38 80 60 44 22 80 45 80 51 0 5 -27 -4 -59 -20
-110 -57 -117 -4 -9 65 40 26 67 51 62 57 -6 6 -34 -5 -62 -24 -29 -19 -52
-24 -52 -12 0 11 -55 27 -122 35 -140 16 -147 26 -121 169 18 101 0 199 -37
199 -8 0 -36 -55 -62 -122 -26 -67 -68 -143 -93 -168 l-46 -46 47 -129 c116
-320 344 -579 647 -736 74 -38 149 -82 169 -97 56 -45 595 -55 759 -14 176 44
384 150 534 271 69 55 132 101 141 101 20 0 104 111 104 137 0 10 13 29 29 42
43 36 131 221 131 276 0 69 52 76 140 17 90 -59 136 -66 153 -21 12 32 -111
156 -178 180 -31 10 -34 37 -28 230 28 910 -774 1587 -1647 1389z m255 -86
c-22 -27 -20 -28 22 -6 60 32 82 11 32 -29 -38 -30 -37 -30 5 -10 96 47 131
-21 47 -94 -33 -29 -39 -41 -16 -33 43 15 46 -18 5 -52 -16 -14 -30 -38 -30
-54 0 -16 -11 -26 -25 -21 -13 4 -37 -4 -52 -19 -21 -21 -34 -22 -55 -4 -41
34 -35 61 27 113 l55 47 -64 -31 c-79 -38 -106 32 -36 95 40 36 40 36 -5 14
-30 -14 -45 -15 -45 -1 0 12 11 21 23 21 13 0 18 5 12 12 -27 27 -95 -39 -117
-112 -26 -86 -51 -101 -73 -45 -27 73 -50 79 -134 39 -44 -22 -90 -51 -101
-64 -42 -52 -306 -192 -279 -148 10 16 3 16 -27 0 -98 -52 -64 -15 41 45 135
77 166 104 88 74 -76 -29 -88 -26 -42 8 22 17 53 30 69 31 17 1 159 62 317
137 282 134 426 169 358 87z m559 -79 c35 -25 73 -45 83 -45 10 0 24 -13 30
-30 6 -16 25 -24 41 -18 60 23 9 -64 -59 -101 -91 -49 -110 -28 -25 26 36 23
57 42 45 43 -11 0 -41 -14 -66 -32 -63 -44 -80 -18 -21 33 l48 41 -54 -33
c-63 -38 -112 -22 -74 23 19 24 17 27 -9 16 -27 -10 -32 1 -30 71 2 45 9 76
15 67 7 -9 41 -36 76 -61z m-204 -145 c-7 -12 -23 -15 -36 -7 -17 9 -17 5 1
-14 15 -17 17 -34 5 -49 -12 -15 -12 -47 0 -89 10 -37 14 -74 9 -82 -5 -9 -1
-22 11 -29 11 -7 20 -3 20 9 0 11 18 3 41 -20 22 -22 35 -49 29 -60 -7 -10 -3
-19 9 -19 11 0 21 -37 21 -81 0 -45 9 -98 20 -118 14 -27 12 -40 -9 -48 -18
-7 -25 -1 -19 14 7 19 -20 27 -96 31 -57 2 -115 13 -128 24 -15 12 -27 12 -31
1 -4 -11 -25 -22 -47 -26 -22 -4 -52 -23 -66 -42 -15 -20 -37 -30 -48 -22 -13
8 -16 4 -8 -10 8 -13 6 -23 -4 -23 -25 0 -48 -70 -53 -160 -11 -173 -41 -268
-77 -247 -16 9 -16 4 1 -14 34 -36 32 -70 -2 -42 -15 13 -33 17 -40 9 -7 -7
-13 -4 -13 7 0 12 -22 31 -48 43 -54 24 -54 91 -1 219 17 42 19 65 6 65 -12 0
-16 14 -10 30 7 17 2 30 -11 30 -12 0 -18 5 -11 11 6 6 -10 34 -35 61 -50 54
-47 119 7 138 63 21 145 110 171 185 15 42 39 75 57 75 35 1 287 227 280 253
-3 9 23 17 56 17 37 0 56 -8 49 -20z m-758 -31 c-9 -24 -2 -29 28 -19 32 10
40 4 40 -31 0 -37 5 -40 30 -19 33 28 70 11 39 -17 -11 -9 -127 -73 -259 -141
-132 -68 -223 -110 -201 -93 21 17 47 31 58 31 11 0 15 5 9 11 -6 5 -107 -35
-225 -90 -243 -115 -286 -127 -141 -41 106 63 110 82 7 29 -116 -60 -75 -17
54 58 152 87 166 107 36 52 -51 -22 -97 -36 -101 -31 -15 14 174 136 220 141
24 3 91 29 149 58 83 42 105 47 105 24 0 -17 -43 -52 -95 -79 -173 -89 -178
-113 -6 -37 148 66 172 84 200 150 29 70 79 111 53 44z m888 -30 c0 -30 52
-80 68 -65 6 7 12 -5 12 -26 1 -37 2 -37 35 2 80 94 119 115 166 90 34 -19 41
-19 29 0 -14 22 62 11 88 -12 15 -14 -44 -69 -66 -61 -12 4 -75 -19 -141 -52
-107 -54 -121 -56 -142 -27 -22 30 -25 28 -36 -12 -14 -56 -38 -34 -46 43 -4
33 -8 67 -9 75 -6 37 3 66 22 66 11 0 20 -10 20 -21z m363 -98 c100 54 153 13
62 -49 -106 -71 -99 -85 15 -34 l87 39 58 -81 c32 -44 53 -85 46 -91 -6 -7
-11 0 -11 14 0 19 -13 17 -51 -8 -55 -36 -105 -24 -71 16 14 18 9 24 -19 24
-27 0 -39 -13 -39 -45 0 -25 -9 -46 -20 -46 -11 0 -20 9 -20 20 0 11 -13 20
-30 20 -16 0 -30 7 -30 16 0 8 -20 17 -44 19 -53 4 -97 -51 -84 -105 5 -22 -9
-67 -31 -100 -29 -43 -41 -50 -41 -25 0 19 -9 35 -21 35 -77 0 -7 164 95 222
124 71 142 97 27 38 -97 -49 -120 -50 -108 -5 11 39 173 147 184 122 3 -9 24
-7 46 4z m245 -304 c-10 -17 4 -20 50 -10 95 19 59 -18 -94 -96 -158 -80 -249
-144 -161 -112 30 10 108 46 175 80 131 66 193 80 131 29 -33 -27 -34 -30 -4
-20 69 21 33 -6 -98 -76 -73 -39 -139 -67 -146 -63 -18 11 -14 -82 4 -101 8
-8 15 -71 15 -141 0 -100 6 -124 28 -115 45 17 53 62 31 161 -15 66 -14 99 3
119 17 21 17 28 -1 28 -43 0 1 40 100 90 110 56 146 64 88 21 -34 -26 -28 -34
22 -30 27 2 70 -63 56 -85 -26 -44 -24 -104 7 -154 32 -49 -30 -139 -98 -144
-20 -1 -21 -3 -1 -11 14 -6 20 -19 13 -30 -6 -10 12 -41 42 -68 83 -77 85
-163 4 -174 -35 -5 -82 -16 -104 -25 -40 -15 -40 -15 0 17 50 40 12 44 -41 4
-61 -46 -89 -37 -89 29 0 76 -44 79 -110 8 -53 -57 -119 -54 -97 4 11 28 7 29
-28 11 -23 -13 -46 -34 -52 -48 -6 -16 -10 -13 -11 8 -1 18 20 47 46 64 32 21
47 48 45 82 -3 57 -35 66 -73 21 -20 -25 -19 -30 8 -30 22 0 7 -26 -48 -82
-123 -127 -182 -43 -111 159 22 62 23 83 5 83 -15 0 -13 8 6 20 27 17 27 19 0
20 -16 0 2 19 40 43 73 45 55 77 -21 37 -23 -13 -47 -19 -53 -13 -5 6 28 29
74 53 46 24 79 47 74 53 -6 6 -29 1 -51 -11 -52 -28 -106 -28 -58 0 20 11 31
28 25 38 -6 10 30 42 80 71 51 30 88 58 83 63 -5 5 -33 -6 -61 -25 -60 -39
-73 -6 -21 52 23 26 25 34 5 32 -54 -6 -36 32 46 97 71 55 89 62 111 40 38
-38 34 -60 -18 -98 -25 -19 -35 -29 -23 -24 78 37 141 58 163 54 14 -2 25 11
25 28 0 18 9 27 20 20 11 -7 20 -3 20 9 0 11 -10 21 -21 21 -12 0 -16 9 -9 20
7 11 26 20 42 20 18 0 24 -10 16 -23z m-664 -279 c204 -84 146 -366 -76 -370
l-115 -1 -22 -109 c-48 -235 -161 -196 -121 41 7 44 4 94 -6 114 -14 25 -8 56
21 113 33 63 37 86 18 116 -82 132 86 186 301 96z m-42 -623 c1 -19 3 -20 11
0 6 15 31 1 69 -40 32 -35 58 -56 58 -46 0 10 21 -2 46 -26 26 -24 51 -39 56
-34 22 21 128 28 151 9 14 -12 35 -16 46 -9 12 8 21 4 21 -8 0 -14 14 -13 40
3 31 20 44 20 65 -1 14 -14 16 -23 5 -19 -21 6 -30 -8 -30 -49 1 -17 7 -15 22
5 16 23 18 15 7 -30 -8 -33 -14 -70 -15 -82 0 -12 -19 -18 -42 -14 -31 7 -35
4 -15 -10 19 -13 21 -23 5 -33 -13 -8 -17 -22 -11 -32 6 -11 3 -19 -7 -19 -11
0 -31 -28 -45 -61 -15 -38 -30 -53 -39 -39 -10 16 -23 14 -46 -9 -17 -17 -43
-31 -58 -31 -19 -1 -18 -6 4 -20 23 -15 18 -19 -25 -20 -30 0 -55 -9 -55 -20
0 -11 -13 -20 -30 -20 -16 0 -30 -10 -30 -22 0 -12 -13 -17 -30 -11 -16 7 -30
2 -30 -10 0 -14 -10 -13 -30 3 -25 20 -30 19 -30 -9 0 -18 -9 -28 -21 -20 -12
7 -33 -2 -46 -21 -28 -38 -155 -34 -168 6 -6 16 4 19 27 11 24 -10 30 -6 20
10 -8 13 -1 29 18 36 23 8 26 17 11 27 -25 15 9 116 49 145 13 9 11 14 -4 15
-14 0 -21 11 -16 25 29 88 25 156 -12 176 -22 12 -34 29 -28 39 6 10 -7 28
-29 40 -53 28 -52 47 9 111 27 30 43 63 36 75 -8 13 0 16 20 8 19 -7 33 -6 31
2 -4 32 5 44 33 44 17 0 31 -11 32 -25z m835 -90 c1 -58 -72 -245 -107 -270
-64 -46 -41 27 37 119 37 43 37 43 -5 32 -59 -15 -52 23 13 73 l55 43 -50 -12
-50 -12 47 41 c59 51 58 52 60 -14z m-1488 16 c7 -10 -43 -51 -110 -90 -129
-76 -149 -83 -128 -50 18 29 -218 -91 -259 -132 -36 -36 -67 3 -46 58 13 35
193 136 215 122 10 -6 70 16 133 49 121 63 176 75 195 43z m84 -55 c-7 -7 -65
-43 -128 -79 -144 -82 -123 -87 35 -7 65 33 124 60 129 60 27 0 7 -43 -24 -54
-19 -8 -78 -39 -131 -70 -102 -60 -123 -67 -104 -37 21 35 -213 -80 -275 -135
-32 -27 -35 -27 -35 2 0 19 54 62 130 105 172 96 166 108 -10 19 -77 -39 -140
-79 -140 -90 0 -11 -8 -20 -18 -20 -10 0 -14 16 -9 36 10 37 232 172 252 152
6 -6 73 21 148 60 124 63 215 93 180 58z m100 -95 c-7 -19 -1 -25 18 -18 68
26 22 -30 -52 -63 -44 -21 -86 -45 -92 -55 -6 -10 36 6 93 35 57 29 114 49
127 44 12 -4 -34 -37 -104 -72 -70 -36 -123 -69 -117 -74 5 -6 84 28 175 75
110 56 169 77 174 61 5 -13 21 -24 36 -24 16 0 23 -12 16 -30 -6 -16 -1 -30
11 -30 59 0 8 -42 -131 -108 -84 -40 -149 -77 -143 -82 5 -6 60 17 121 51 67
36 117 52 124 40 7 -11 -40 -46 -103 -79 -64 -32 -134 -73 -156 -91 -22 -18
26 0 107 39 124 61 145 67 139 36 -3 -20 -15 -36 -26 -36 -11 0 -41 -21 -66
-46 -32 -32 -59 -42 -87 -33 -35 11 -39 6 -28 -29 11 -33 3 -46 -36 -61 -27
-10 -55 -28 -63 -41 -7 -12 -31 -16 -53 -9 -26 8 -51 -1 -73 -26 -40 -46 -100
-39 -62 7 19 23 12 26 -40 15 -95 -19 -76 2 88 95 187 107 181 124 -10 28
-202 -102 -223 -76 -24 30 210 112 199 128 -14 21 -89 -45 -162 -74 -162 -65
0 23 298 187 318 175 8 -5 15 4 15 20 0 40 -2 39 -191 -62 -92 -49 -172 -85
-178 -79 -14 13 -17 10 141 98 178 98 173 112 -7 21 -78 -39 -147 -66 -153
-60 -16 15 -12 18 130 89 69 34 125 67 125 72 0 13 -95 -30 -205 -94 -63 -37
-95 -46 -95 -29 0 14 46 48 101 74 56 26 107 56 113 66 7 10 -47 -13 -119 -51
-127 -67 -132 -68 -143 -29 -6 23 -9 43 -6 45 37 33 222 126 235 118 9 -6 87
25 173 68 181 93 173 90 159 53z"/>
<path d="M3894 1799 c-5 -20 2 -41 17 -47 30 -11 82 42 61 62 -28 28 -69 21
-78 -15z"/>
<path d="M3540 1650 c0 -34 9 -50 25 -45 14 5 25 25 25 45 0 20 -11 40 -25 45
-16 5 -25 -11 -25 -45z"/>
<path d="M3719 1517 c-22 -105 -6 -146 35 -92 26 34 21 80 -9 90 -14 5 -26 5
-26 2z"/>
<path d="M3020 1760 c0 -33 -2 -67 -4 -75 -5 -22 59 -31 116 -16 101 25 42
151 -71 151 -32 0 -41 -13 -41 -60z"/>
<path d="M2744 847 c-138 -79 -157 -115 -25 -47 136 69 213 120 181 119 -16 0
-87 -33 -156 -72z"/>
<path d="M5873 2207 c-24 -25 -13 -67 17 -67 17 0 30 18 30 40 0 40 -21 52
-47 27z"/>
<path d="M1834 1988 c-53 -27 -100 -61 -105 -75 -17 -43 -22 -175 -8 -184 24
-15 64 49 51 82 -16 43 41 148 84 152 18 2 57 1 86 -1 29 -2 64 12 80 31 25
31 24 33 -7 21 -95 -38 -107 -39 -66 -6 60 49 -3 38 -115 -20z"/>
<path d="M187 1965 c-135 -22 -191 -205 -63 -205 32 0 34 -18 23 -215 -11
-189 -8 -219 22 -244 72 -60 99 -5 124 248 20 200 29 239 65 264 51 36 55 98
7 117 -71 29 -136 41 -178 35z"/>
<path d="M1329 1956 c-82 -37 -37 -660 48 -673 90 -13 134 150 55 201 -14 9
-21 97 -20 244 3 240 -6 263 -83 228z"/>
<path d="M4320 1956 c-122 -45 -166 -164 -70 -188 49 -12 50 -15 50 -228 0
-248 30 -312 103 -221 21 26 34 61 28 77 -28 71 30 370 80 417 96 89 -48 196
-191 143z"/>
<path d="M4947 1936 c-29 -32 -46 -85 -55 -175 -7 -71 -20 -137 -29 -146 -20
-20 -63 133 -57 205 10 125 -152 54 -173 -76 -7 -41 -25 -146 -40 -234 -41
-236 50 -321 98 -92 25 119 56 122 98 13 79 -207 209 -46 226 279 5 99 1 201
-9 226 l-17 46 -42 -46z"/>
<path d="M5097 1920 c-13 -27 -27 -90 -30 -140 -9 -149 -20 -264 -37 -375 -15
-102 -14 -105 32 -105 27 0 95 -6 153 -13 170 -20 157 97 -15 134 -36 7 -48
21 -44 50 12 80 23 89 110 89 59 0 98 12 121 36 43 48 9 84 -79 84 -165 0
-170 128 -6 150 86 12 98 20 98 61 0 93 -259 118 -303 29z"/>
<path d="M493 1923 c-41 -45 -75 -591 -40 -647 21 -35 67 -13 79 39 21 87 29
91 85 40 80 -73 340 -219 377 -211 53 10 52 49 -4 101 l-52 48 37 98 c39 108
168 173 135 69 -16 -50 4 -180 27 -180 106 0 131 579 28 664 -45 38 -121 -21
-158 -122 -18 -51 -49 -110 -67 -132 -18 -22 -45 -94 -59 -160 -38 -178 -36
-174 -76 -153 -44 24 -185 160 -185 179 0 8 34 32 75 54 98 52 160 171 127
243 -43 96 -263 143 -329 70z m146 -112 c19 -23 15 -33 -19 -51 -53 -28 -68
-16 -50 38 15 49 36 53 69 13z m477 -158 c5 -22 -6 -33 -33 -33 -30 0 -37 10
-29 41 13 47 53 42 62 -8z"/>
<path d="M5505 1947 c-37 -15 -69 -161 -55 -248 7 -42 4 -92 -6 -113 -32 -62
0 -314 41 -322 26 -5 39 10 48 55 12 59 47 106 47 63 0 -22 362 -242 398 -242
40 0 23 92 -27 139 -28 26 -43 58 -37 75 9 24 2 28 -31 17 -64 -20 -306 166
-258 198 3 2 37 23 76 47 96 57 147 159 118 236 -28 76 -218 134 -314 95z
m129 -139 c6 -18 -1 -40 -16 -50 -43 -27 -58 -22 -58 19 0 65 52 87 74 31z"/>
<path d="M5860 50 c0 -31 11 -50 30 -50 19 0 30 19 30 50 0 31 -11 50 -30 50
-19 0 -30 -19 -30 -50z"/>
</g>
</svg>
